<svg width="52" height="69" viewBox="0 0 52 69" fill="none" xmlns="http://www.w3.org/2000/svg">
<path d="M51.8393 51.432C51.8393 54.824 50.9753 57.864 49.2473 60.552C47.5193 63.176 45.1833 65.256 42.2393 66.792C39.3593 68.264 36.1913 69 32.7353 69H0.57525V0.839996H33.4073C36.6073 0.839996 39.3593 1.704 41.6633 3.432C44.0313 5.096 45.8233 7.272 47.0393 9.96C48.3193 12.584 48.9593 15.336 48.9593 18.216C48.9593 21.608 48.0953 24.744 46.3673 27.624C44.6393 30.504 42.2393 32.648 39.1673 34.056C43.0713 35.208 46.1433 37.352 48.3833 40.488C50.6873 43.624 51.8393 47.272 51.8393 51.432ZM45.1193 50.28C45.1193 47.976 44.6073 45.864 43.5833 43.944C42.5593 41.96 41.1513 40.36 39.3593 39.144C37.6313 37.928 35.6473 37.32 33.4073 37.32H7.29525V63.144H32.7353C35.0393 63.144 37.1193 62.536 38.9753 61.32C40.8313 60.104 42.3033 58.536 43.3913 56.616C44.5433 54.632 45.1193 52.52 45.1193 50.28ZM7.29525 6.696V31.848H30.7193C32.9593 31.848 34.9433 31.272 36.6713 30.12C38.3993 28.904 39.7753 27.336 40.7993 25.416C41.8233 23.496 42.3353 21.448 42.3353 19.272C42.3353 16.968 41.8553 14.888 40.8953 13.032C39.9353 11.112 38.6233 9.576 36.9593 8.424C35.2953 7.272 33.4073 6.696 31.2953 6.696H7.29525Z" fill="black"/>
</svg>
