<svg width="354" height="113" viewBox="0 0 354 113" fill="none" xmlns="http://www.w3.org/2000/svg">
<path d="M4.29262 55.44C4.29262 51.28 4.99662 47.216 6.40462 43.248C7.87662 39.216 9.98862 35.568 12.7406 32.304C15.4926 28.976 18.8846 26.352 22.9166 24.432C26.9486 22.448 31.5246 21.456 36.6446 21.456C42.7246 21.456 47.9086 22.864 52.1966 25.68C56.5486 28.432 59.7486 31.984 61.7966 36.336L56.5166 39.6C55.0446 36.592 53.1886 34.224 50.9486 32.496C48.7086 30.704 46.3086 29.424 43.7486 28.656C41.2526 27.888 38.7566 27.504 36.2606 27.504C32.1646 27.504 28.5486 28.336 25.4126 30C22.2766 31.6 19.6206 33.776 17.4446 36.528C15.3326 39.216 13.7326 42.256 12.6446 45.648C11.5566 48.976 11.0126 52.368 11.0126 55.824C11.0126 59.6 11.6526 63.216 12.9326 66.672C14.2126 70.128 16.0046 73.2 18.3086 75.888C20.6126 78.512 23.3006 80.624 26.3726 82.224C29.5086 83.76 32.9006 84.528 36.5486 84.528C39.1086 84.528 41.7326 84.08 44.4206 83.184C47.1086 82.288 49.6046 80.912 51.9086 79.056C54.2766 77.2 56.1646 74.8 57.5726 71.856L63.1406 74.736C61.7326 78.128 59.5566 81.008 56.6126 83.376C53.6686 85.744 50.3726 87.536 46.7246 88.752C43.1406 89.968 39.6206 90.576 36.1646 90.576C31.4926 90.576 27.2046 89.584 23.3006 87.6C19.3966 85.552 16.0046 82.864 13.1246 79.536C10.3086 76.144 8.13262 72.368 6.59662 68.208C5.06062 63.984 4.29262 59.728 4.29262 55.44ZM95.5451 90.96C91.9611 90.96 88.6331 90.288 85.5611 88.944C82.5531 87.536 79.9291 85.648 77.6891 83.28C75.5131 80.848 73.8171 78.096 72.6011 75.024C71.3851 71.888 70.7771 68.592 70.7771 65.136C70.7771 61.552 71.3851 58.224 72.6011 55.152C73.8171 52.016 75.5451 49.264 77.7851 46.896C80.0251 44.464 82.6491 42.576 85.6571 41.232C88.7291 39.824 92.0571 39.12 95.6411 39.12C99.2251 39.12 102.521 39.824 105.529 41.232C108.537 42.576 111.161 44.464 113.401 46.896C115.641 49.264 117.369 52.016 118.585 55.152C119.801 58.224 120.409 61.552 120.409 65.136C120.409 68.592 119.801 71.888 118.585 75.024C117.369 78.096 115.641 80.848 113.401 83.28C111.225 85.648 108.601 87.536 105.529 88.944C102.521 90.288 99.1931 90.96 95.5451 90.96ZM77.4011 65.232C77.4011 68.944 78.2011 72.336 79.8011 75.408C81.4651 78.416 83.6731 80.816 86.4251 82.608C89.1771 84.336 92.2171 85.2 95.5451 85.2C98.8731 85.2 101.913 84.304 104.665 82.512C107.417 80.72 109.625 78.288 111.289 75.216C112.953 72.08 113.785 68.688 113.785 65.04C113.785 61.328 112.953 57.936 111.289 54.864C109.625 51.792 107.417 49.36 104.665 47.568C101.913 45.776 98.8731 44.88 95.5451 44.88C92.2171 44.88 89.1771 45.808 86.4251 47.664C83.7371 49.52 81.5611 51.984 79.8971 55.056C78.2331 58.064 77.4011 61.456 77.4011 65.232ZM174.335 90H167.807V62.064C167.807 56.176 166.943 51.888 165.215 49.2C163.487 46.448 160.767 45.072 157.055 45.072C154.495 45.072 151.967 45.712 149.471 46.992C146.975 48.208 144.767 49.904 142.847 52.08C140.991 54.192 139.647 56.624 138.815 59.376V90H132.287V39.984H138.239V51.312C139.583 48.88 141.343 46.768 143.519 44.976C145.695 43.12 148.159 41.68 150.911 40.656C153.663 39.632 156.511 39.12 159.455 39.12C162.207 39.12 164.543 39.632 166.463 40.656C168.383 41.68 169.919 43.152 171.071 45.072C172.223 46.928 173.055 49.2 173.567 51.888C174.079 54.512 174.335 57.456 174.335 60.72V90ZM212.747 87.6C212.235 87.792 211.435 88.144 210.347 88.656C209.259 89.168 207.947 89.616 206.411 90C204.875 90.384 203.211 90.576 201.419 90.576C199.563 90.576 197.803 90.224 196.139 89.52C194.539 88.816 193.259 87.76 192.299 86.352C191.339 84.88 190.859 83.088 190.859 80.976V45.168H183.947V39.984H190.859V23.088H197.387V39.984H208.907V45.168H197.387V79.152C197.515 80.944 198.155 82.288 199.307 83.184C200.523 84.08 201.899 84.528 203.435 84.528C205.227 84.528 206.859 84.24 208.331 83.664C209.803 83.024 210.699 82.576 211.019 82.32L212.747 87.6ZM217.831 75.6C217.831 72.464 218.727 69.776 220.519 67.536C222.311 65.232 224.775 63.472 227.911 62.256C231.111 60.976 234.791 60.336 238.951 60.336C241.383 60.336 243.911 60.528 246.535 60.912C249.159 61.296 251.495 61.872 253.543 62.64V58.416C253.543 54.192 252.295 50.832 249.799 48.336C247.303 45.84 243.847 44.592 239.431 44.592C236.743 44.592 234.087 45.104 231.463 46.128C228.903 47.088 226.215 48.528 223.399 50.448L220.903 45.84C224.167 43.6 227.367 41.936 230.503 40.848C233.639 39.696 236.839 39.12 240.103 39.12C246.247 39.12 251.111 40.88 254.695 44.4C258.279 47.92 260.071 52.784 260.071 58.992V82.128C260.071 83.024 260.263 83.696 260.647 84.144C261.031 84.528 261.639 84.752 262.471 84.816V90C261.767 90.064 261.159 90.128 260.647 90.192C260.135 90.256 259.751 90.256 259.495 90.192C257.895 90.128 256.679 89.616 255.847 88.656C255.015 87.696 254.567 86.672 254.503 85.584L254.407 81.936C252.167 84.816 249.255 87.056 245.671 88.656C242.087 90.192 238.439 90.96 234.727 90.96C231.527 90.96 228.615 90.288 225.991 88.944C223.431 87.536 221.415 85.68 219.943 83.376C218.535 81.008 217.831 78.416 217.831 75.6ZM251.335 79.44C252.039 78.544 252.583 77.68 252.967 76.848C253.351 76.016 253.543 75.28 253.543 74.64V67.344C251.367 66.512 249.095 65.872 246.727 65.424C244.423 64.976 242.087 64.752 239.719 64.752C235.047 64.752 231.271 65.68 228.391 67.536C225.511 69.392 224.071 71.92 224.071 75.12C224.071 76.976 224.551 78.736 225.511 80.4C226.471 82 227.879 83.344 229.735 84.432C231.591 85.456 233.767 85.968 236.263 85.968C239.399 85.968 242.311 85.36 244.999 84.144C247.751 82.928 249.863 81.36 251.335 79.44ZM296.832 90.96C293.184 90.96 289.824 90.288 286.752 88.944C283.744 87.536 281.088 85.616 278.784 83.184C276.544 80.752 274.784 77.968 273.504 74.832C272.288 71.696 271.68 68.368 271.68 64.848C271.68 60.112 272.736 55.792 274.848 51.888C276.96 47.984 279.904 44.88 283.68 42.576C287.456 40.272 291.808 39.12 296.736 39.12C301.408 39.12 305.536 40.208 309.12 42.384C312.704 44.496 315.36 47.376 317.088 51.024L310.752 53.04C309.344 50.48 307.36 48.496 304.8 47.088C302.304 45.616 299.52 44.88 296.448 44.88C293.12 44.88 290.08 45.744 287.328 47.472C284.576 49.2 282.368 51.568 280.704 54.576C279.104 57.584 278.304 61.008 278.304 64.848C278.304 68.624 279.136 72.048 280.8 75.12C282.464 78.192 284.672 80.656 287.424 82.512C290.176 84.304 293.216 85.2 296.544 85.2C298.72 85.2 300.8 84.816 302.784 84.048C304.832 83.28 306.592 82.256 308.064 80.976C309.6 79.632 310.624 78.192 311.136 76.656L317.568 78.576C316.672 80.944 315.168 83.088 313.056 85.008C311.008 86.864 308.576 88.336 305.76 89.424C303.008 90.448 300.032 90.96 296.832 90.96ZM352.783 87.6C352.271 87.792 351.471 88.144 350.383 88.656C349.295 89.168 347.983 89.616 346.447 90C344.911 90.384 343.247 90.576 341.455 90.576C339.599 90.576 337.839 90.224 336.175 89.52C334.575 88.816 333.295 87.76 332.335 86.352C331.375 84.88 330.895 83.088 330.895 80.976V45.168H323.983V39.984H330.895V23.088H337.423V39.984H348.943V45.168H337.423V79.152C337.551 80.944 338.191 82.288 339.343 83.184C340.559 84.08 341.935 84.528 343.471 84.528C345.263 84.528 346.895 84.24 348.367 83.664C349.839 83.024 350.735 82.576 351.055 82.32L352.783 87.6Z" fill="black"/>
</svg>
