<svg width="265" height="113" viewBox="0 0 265 113" fill="none" xmlns="http://www.w3.org/2000/svg">
<path d="M60.6061 72.432C60.6061 75.824 59.7421 78.864 58.0141 81.552C56.2861 84.176 53.9501 86.256 51.0061 87.792C48.1261 89.264 44.9581 90 41.5021 90H9.34209V21.84H42.1741C45.3741 21.84 48.1261 22.704 50.4301 24.432C52.7981 26.096 54.5901 28.272 55.8061 30.96C57.0861 33.584 57.7261 36.336 57.7261 39.216C57.7261 42.608 56.8621 45.744 55.1341 48.624C53.4061 51.504 51.0061 53.648 47.9341 55.056C51.8381 56.208 54.9101 58.352 57.1501 61.488C59.4541 64.624 60.6061 68.272 60.6061 72.432ZM53.8861 71.28C53.8861 68.976 53.3741 66.864 52.3501 64.944C51.3261 62.96 49.9181 61.36 48.1261 60.144C46.3981 58.928 44.4141 58.32 42.1741 58.32H16.0621V84.144H41.5021C43.8061 84.144 45.8861 83.536 47.7421 82.32C49.5981 81.104 51.0701 79.536 52.1581 77.616C53.3101 75.632 53.8861 73.52 53.8861 71.28ZM16.0621 27.696V52.848H39.4861C41.7261 52.848 43.7101 52.272 45.4381 51.12C47.1661 49.904 48.5421 48.336 49.5661 46.416C50.5901 44.496 51.1021 42.448 51.1021 40.272C51.1021 37.968 50.6221 35.888 49.6621 34.032C48.7021 32.112 47.3901 30.576 45.7261 29.424C44.0621 28.272 42.1741 27.696 40.0621 27.696H16.0621Z" fill="black"/>
<path d="M87.0947 90.96C83.5107 90.96 80.1827 90.288 77.1107 88.944C74.1027 87.536 71.4787 85.648 69.2387 83.28C67.0627 80.848 65.3667 78.096 64.1507 75.024C62.9347 71.888 62.3267 68.592 62.3267 65.136C62.3267 61.552 62.9347 58.224 64.1507 55.152C65.3667 52.016 67.0947 49.264 69.3347 46.896C71.5747 44.464 74.1987 42.576 77.2067 41.232C80.2787 39.824 83.6067 39.12 87.1907 39.12C90.7747 39.12 94.0707 39.824 97.0787 41.232C100.087 42.576 102.711 44.464 104.951 46.896C107.191 49.264 108.919 52.016 110.135 55.152C111.351 58.224 111.959 61.552 111.959 65.136C111.959 68.592 111.351 71.888 110.135 75.024C108.919 78.096 107.191 80.848 104.951 83.28C102.775 85.648 100.151 87.536 97.0787 88.944C94.0707 90.288 90.7427 90.96 87.0947 90.96ZM68.9507 65.232C68.9507 68.944 69.7507 72.336 71.3507 75.408C73.0147 78.416 75.2227 80.816 77.9747 82.608C80.7267 84.336 83.7667 85.2 87.0947 85.2C90.4227 85.2 93.4627 84.304 96.2147 82.512C98.9667 80.72 101.175 78.288 102.839 75.216C104.503 72.08 105.335 68.688 105.335 65.04C105.335 61.328 104.503 57.936 102.839 54.864C101.175 51.792 98.9667 49.36 96.2147 47.568C93.4627 45.776 90.4227 44.88 87.0947 44.88C83.7667 44.88 80.7267 45.808 77.9747 47.664C75.2867 49.52 73.1107 51.984 71.4467 55.056C69.7827 58.064 68.9507 61.456 68.9507 65.232Z" fill="black"/>
<path d="M138.286 90.96C134.702 90.96 131.374 90.288 128.302 88.944C125.294 87.536 122.67 85.648 120.43 83.28C118.254 80.848 116.558 78.096 115.342 75.024C114.126 71.888 113.518 68.592 113.518 65.136C113.518 61.552 114.126 58.224 115.342 55.152C116.558 52.016 118.286 49.264 120.526 46.896C122.766 44.464 125.39 42.576 128.398 41.232C131.47 39.824 134.798 39.12 138.382 39.12C141.966 39.12 145.262 39.824 148.27 41.232C151.278 42.576 153.902 44.464 156.142 46.896C158.382 49.264 160.11 52.016 161.326 55.152C162.542 58.224 163.15 61.552 163.15 65.136C163.15 68.592 162.542 71.888 161.326 75.024C160.11 78.096 158.382 80.848 156.142 83.28C153.966 85.648 151.342 87.536 148.27 88.944C145.262 90.288 141.934 90.96 138.286 90.96ZM120.142 65.232C120.142 68.944 120.942 72.336 122.542 75.408C124.206 78.416 126.414 80.816 129.166 82.608C131.918 84.336 134.958 85.2 138.286 85.2C141.614 85.2 144.654 84.304 147.406 82.512C150.158 80.72 152.366 78.288 154.03 75.216C155.694 72.08 156.526 68.688 156.526 65.04C156.526 61.328 155.694 57.936 154.03 54.864C152.366 51.792 150.158 49.36 147.406 47.568C144.654 45.776 141.614 44.88 138.286 44.88C134.958 44.88 131.918 45.808 129.166 47.664C126.478 49.52 124.302 51.984 122.638 55.056C120.974 58.064 120.142 61.456 120.142 65.232Z" fill="black"/>
<path d="M202.055 90L183.527 64.368L172.871 74.352V90H166.343V19.92H172.871V67.344L201.191 40.08H208.391L187.943 60.528L209.159 90H202.055Z" fill="black"/>
<path d="M211.343 90V39.984H217.871V90H211.343ZM211.343 29.52V19.92H217.871V29.52H211.343Z" fill="black"/>
<path d="M250.622 87.6C250.11 87.792 249.31 88.144 248.222 88.656C247.134 89.168 245.822 89.616 244.286 90C242.75 90.384 241.086 90.576 239.294 90.576C237.438 90.576 235.678 90.224 234.014 89.52C232.414 88.816 231.134 87.76 230.174 86.352C229.214 84.88 228.734 83.088 228.734 80.976V45.168H221.822V39.984H228.734V23.088H235.262V39.984H246.782V45.168H235.262V79.152C235.39 80.944 236.03 82.288 237.182 83.184C238.398 84.08 239.774 84.528 241.31 84.528C243.102 84.528 244.734 84.24 246.206 83.664C247.678 83.024 248.574 82.576 248.894 82.32L250.622 87.6Z" fill="black"/>
</svg>
