<svg width="50" height="52" viewBox="0 0 50 52" fill="none" xmlns="http://www.w3.org/2000/svg">
<path d="M24.9651 51.96C21.3811 51.96 18.0531 51.288 14.9811 49.944C11.9731 48.536 9.34913 46.648 7.10913 44.28C4.93313 41.848 3.23713 39.096 2.02113 36.024C0.805125 32.888 0.197125 29.592 0.197125 26.136C0.197125 22.552 0.805125 19.224 2.02113 16.152C3.23713 13.016 4.96513 10.264 7.20513 7.896C9.44513 5.464 12.0691 3.576 15.0771 2.232C18.1491 0.823997 21.4771 0.119997 25.0611 0.119997C28.6451 0.119997 31.9411 0.823997 34.9491 2.232C37.9571 3.576 40.5811 5.464 42.8211 7.896C45.0611 10.264 46.7891 13.016 48.0051 16.152C49.2211 19.224 49.8291 22.552 49.8291 26.136C49.8291 29.592 49.2211 32.888 48.0051 36.024C46.7891 39.096 45.0611 41.848 42.8211 44.28C40.6451 46.648 38.0211 48.536 34.9491 49.944C31.9411 51.288 28.6131 51.96 24.9651 51.96ZM6.82113 26.232C6.82113 29.944 7.62113 33.336 9.22113 36.408C10.8851 39.416 13.0931 41.816 15.8451 43.608C18.5971 45.336 21.6371 46.2 24.9651 46.2C28.2931 46.2 31.3331 45.304 34.0851 43.512C36.8371 41.72 39.0451 39.288 40.7091 36.216C42.3731 33.08 43.2051 29.688 43.2051 26.04C43.2051 22.328 42.3731 18.936 40.7091 15.864C39.0451 12.792 36.8371 10.36 34.0851 8.568C31.3331 6.776 28.2931 5.88 24.9651 5.88C21.6371 5.88 18.5971 6.808 15.8451 8.664C13.1571 10.52 10.9811 12.984 9.31713 16.056C7.65313 19.064 6.82113 22.456 6.82113 26.232Z" fill="black"/>
</svg>
