<svg width="30" height="68" viewBox="0 0 30 68" fill="none" xmlns="http://www.w3.org/2000/svg">
<path d="M29.6219 64.6C29.1099 64.792 28.3099 65.144 27.2219 65.656C26.1339 66.168 24.8219 66.616 23.2859 67C21.7499 67.384 20.0859 67.576 18.2939 67.576C16.4379 67.576 14.6779 67.224 13.0139 66.52C11.4139 65.816 10.1339 64.76 9.17388 63.352C8.21388 61.88 7.73388 60.088 7.73388 57.976V22.168H0.821875V16.984H7.73388V0.0879974H14.2619V16.984H25.7819V22.168H14.2619V56.152C14.3899 57.944 15.0299 59.288 16.1819 60.184C17.3979 61.08 18.7739 61.528 20.3099 61.528C22.1019 61.528 23.7339 61.24 25.2059 60.664C26.6779 60.024 27.5739 59.576 27.8939 59.32L29.6219 64.6Z" fill="black"/>
</svg>
