<svg width="260" height="113" viewBox="0 0 260 113" fill="none" xmlns="http://www.w3.org/2000/svg">
<path d="M56.9593 72.432C56.9593 75.824 56.0953 78.864 54.3673 81.552C52.6393 84.176 50.3033 86.256 47.3593 87.792C44.4793 89.264 41.3113 90 37.8553 90H5.69525V21.84H38.5273C41.7273 21.84 44.4793 22.704 46.7833 24.432C49.1513 26.096 50.9433 28.272 52.1593 30.96C53.4393 33.584 54.0793 36.336 54.0793 39.216C54.0793 42.608 53.2153 45.744 51.4873 48.624C49.7593 51.504 47.3593 53.648 44.2873 55.056C48.1913 56.208 51.2633 58.352 53.5033 61.488C55.8073 64.624 56.9593 68.272 56.9593 72.432ZM50.2393 71.28C50.2393 68.976 49.7273 66.864 48.7033 64.944C47.6793 62.96 46.2713 61.36 44.4793 60.144C42.7513 58.928 40.7673 58.32 38.5273 58.32H12.4153V84.144H37.8553C40.1593 84.144 42.2393 83.536 44.0953 82.32C45.9513 81.104 47.4233 79.536 48.5113 77.616C49.6633 75.632 50.2393 73.52 50.2393 71.28ZM12.4153 27.696V52.848H35.8393C38.0793 52.848 40.0633 52.272 41.7913 51.12C43.5193 49.904 44.8953 48.336 45.9193 46.416C46.9433 44.496 47.4553 42.448 47.4553 40.272C47.4553 37.968 46.9753 35.888 46.0153 34.032C45.0553 32.112 43.7433 30.576 42.0793 29.424C40.4153 28.272 38.5273 27.696 36.4153 27.696H12.4153Z" fill="white"/>
<path d="M84.5951 90.96C81.0111 90.96 77.6831 90.288 74.6111 88.944C71.6031 87.536 68.9791 85.648 66.7391 83.28C64.5631 80.848 62.8671 78.096 61.6511 75.024C60.4351 71.888 59.8271 68.592 59.8271 65.136C59.8271 61.552 60.4351 58.224 61.6511 55.152C62.8671 52.016 64.5951 49.264 66.8351 46.896C69.0751 44.464 71.6991 42.576 74.7071 41.232C77.7791 39.824 81.1071 39.12 84.6911 39.12C88.2751 39.12 91.5711 39.824 94.5791 41.232C97.5871 42.576 100.211 44.464 102.451 46.896C104.691 49.264 106.419 52.016 107.635 55.152C108.851 58.224 109.459 61.552 109.459 65.136C109.459 68.592 108.851 71.888 107.635 75.024C106.419 78.096 104.691 80.848 102.451 83.28C100.275 85.648 97.6511 87.536 94.5791 88.944C91.5711 90.288 88.2431 90.96 84.5951 90.96ZM66.4511 65.232C66.4511 68.944 67.2511 72.336 68.8511 75.408C70.5151 78.416 72.7231 80.816 75.4751 82.608C78.2271 84.336 81.2671 85.2 84.5951 85.2C87.9231 85.2 90.9631 84.304 93.7151 82.512C96.4671 80.72 98.6751 78.288 100.339 75.216C102.003 72.08 102.835 68.688 102.835 65.04C102.835 61.328 102.003 57.936 100.339 54.864C98.6751 51.792 96.4671 49.36 93.7151 47.568C90.9631 45.776 87.9231 44.88 84.5951 44.88C81.2671 44.88 78.2271 45.808 75.4751 47.664C72.7871 49.52 70.6111 51.984 68.9471 55.056C67.2831 58.064 66.4511 61.456 66.4511 65.232Z" fill="white"/>
<path d="M137.375 90.96C133.791 90.96 130.463 90.288 127.391 88.944C124.383 87.536 121.759 85.648 119.519 83.28C117.343 80.848 115.647 78.096 114.431 75.024C113.215 71.888 112.607 68.592 112.607 65.136C112.607 61.552 113.215 58.224 114.431 55.152C115.647 52.016 117.375 49.264 119.615 46.896C121.855 44.464 124.479 42.576 127.487 41.232C130.559 39.824 133.887 39.12 137.471 39.12C141.055 39.12 144.351 39.824 147.359 41.232C150.367 42.576 152.991 44.464 155.231 46.896C157.471 49.264 159.199 52.016 160.415 55.152C161.631 58.224 162.239 61.552 162.239 65.136C162.239 68.592 161.631 71.888 160.415 75.024C159.199 78.096 157.471 80.848 155.231 83.28C153.055 85.648 150.431 87.536 147.359 88.944C144.351 90.288 141.023 90.96 137.375 90.96ZM119.231 65.232C119.231 68.944 120.031 72.336 121.631 75.408C123.295 78.416 125.503 80.816 128.255 82.608C131.007 84.336 134.047 85.2 137.375 85.2C140.703 85.2 143.743 84.304 146.495 82.512C149.247 80.72 151.455 78.288 153.119 75.216C154.783 72.08 155.615 68.688 155.615 65.04C155.615 61.328 154.783 57.936 153.119 54.864C151.455 51.792 149.247 49.36 146.495 47.568C143.743 45.776 140.703 44.88 137.375 44.88C134.047 44.88 131.007 45.808 128.255 47.664C125.567 49.52 123.391 51.984 121.727 55.056C120.063 58.064 119.231 61.456 119.231 65.232Z" fill="white"/>
<path d="M201.664 90L183.136 64.368L172.48 74.352V90H165.952V19.92H172.48V67.344L200.8 40.08H208L187.552 60.528L208.768 90H201.664Z" fill="white"/>
<path d="M214.558 90V21.84H221.278V90H214.558Z" fill="white"/>
<path d="M259.137 87.6C258.625 87.792 257.825 88.144 256.737 88.656C255.649 89.168 254.337 89.616 252.801 90C251.265 90.384 249.601 90.576 247.809 90.576C245.953 90.576 244.193 90.224 242.529 89.52C240.929 88.816 239.649 87.76 238.689 86.352C237.729 84.88 237.249 83.088 237.249 80.976V45.168H230.337V39.984H237.249V23.088H243.777V39.984H255.297V45.168H243.777V79.152C243.905 80.944 244.545 82.288 245.697 83.184C246.913 84.08 248.289 84.528 249.825 84.528C251.617 84.528 253.249 84.24 254.721 83.664C256.193 83.024 257.089 82.576 257.409 82.32L259.137 87.6Z" fill="white"/>
</svg>
